PathFileType	4	(X/Y/Z)	 s06c0303.trc
DataRate	CameraRate	NumFrames	NumMarkers	Units	OrigDataRate	OrigDataStartFrame	OrigNumFrames
200	200	6	48	mm	200	501	2000
Frame#	Time	racr			lacr			c7			jug			rlel			rdr			llel			ldr			s2			lic			ric			lasi			rasi			rpsi			lpsi			rgt			lgt			rth1			rth2			rth3			rth4			rlfc			rmfc			rsh1			rsh2			rsh3			rsh4			rlmal			rcal			rtoe			rmt5			lth1			lth2			lth4			lth3			llfc			lmfc			llmal			lcal			lmt5			lsh1			lsh2			lsh3			lsh4			ltoe			SBIKE			LBIKE			RBIKE			
		X1	Y1	Z1	X2	Y2	Z2	X3	Y3	Z3	X4	Y4	Z4	X5	Y5	Z5	X6	Y6	Z6	X7	Y7	Z7	X8	Y8	Z8	X9	Y9	Z9	X10	Y10	Z10	X11	Y11	Z11	X12	Y12	Z12	X13	Y13	Z13	X14	Y14	Z14	X15	Y15	Z15	X16	Y16	Z16	X17	Y17	Z17	X18	Y18	Z18	X19	Y19	Z19	X20	Y20	Z20	X21	Y21	Z21	X22	Y22	Z22	X23	Y23	Z23	X24	Y24	Z24	X25	Y25	Z25	X26	Y26	Z26	X27	Y27	Z27	X28	Y28	Z28	X29	Y29	Z29	X30	Y30	Z30	X31	Y31	Z31	X32	Y32	Z32	X33	Y33	Z33	X34	Y34	Z34	X35	Y35	Z35	X36	Y36	Z36	X37	Y37	Z37	X38	Y38	Z38	X39	Y39	Z39	X40	Y40	Z40	X41	Y41	Z41	X42	Y42	Z42	X43	Y43	Z43	X44	Y44	Z44	X45	Y45	Z45	X46	Y46	Z46	X47	Y47	Z47	X48	Y48	Z48	
501	2.5050	645.567213	1300.075347	-66.910733	633.870092	1297.938816	-376.575104	645.320359	1369.300888	-224.024606	623.038488	1209.365202	-218.651972	542.643988	1062.497476	44.632426	715.640352	925.300489	-40.948690	538.412182	1063.013609	-488.608856	710.605722	922.644345	-408.522103	94.246984	1165.579492	-223.909524	256.858744	1147.133232	-386.058787	243.757531	1103.501807	-59.168491	272.990597	1090.663774	-353.681285	274.625551	1066.346133	-103.702998	129.226422	1196.975699	-186.577321	128.235607	1204.660210	-246.151811	194.205403	1023.394540	-41.970933	229.790967	1093.421351	-424.287041	233.937928	905.554546	-11.795544	275.838180	824.644516	-6.329283	272.789424	738.073815	-16.535617	311.109152	834.029096	-15.354943	291.046029	633.426101	-26.045236	295.710563	608.021533	-133.463618	264.779319	511.442081	-5.368752	269.227105	426.064085	-24.568688	230.764687	348.454076	-34.468359	294.407404	426.149029	-56.676403	208.459605	271.868035	-45.225808	144.301003	267.202154	-94.400838	393.252251	143.533589	-90.881433	295.113764	163.812257	-21.830787	299.867637	1006.307606	-448.482197	380.702921	973.789431	-445.631316	401.311374	999.988877	-429.762650	436.091118	903.536254	-450.649793	473.823083	805.836716	-427.232999	480.545757	791.652061	-311.739290	163.821081	611.669036	-375.353375	98.735618	647.322499	-323.517063	181.528960	466.519969	-391.736576	393.486800	735.491943	-436.865299	334.693523	678.911492	-404.887290	249.896329	653.062316	-395.916078	353.296367	662.670784	-374.283582	238.209442	401.515838	-331.739733	-160.299076	853.891438	-203.457477	-54.748542	84.004072	-404.670292	-51.596620	79.779806	-7.424576	
502	2.5100	646.246067	1300.698806	-68.322056	634.302390	1298.923520	-378.075906	645.776895	1369.823066	-225.414944	623.653117	1209.845428	-219.933882	544.142920	1063.516774	45.137095	715.704753	925.090795	-41.342828	538.938424	1063.595559	-489.739673	710.943029	923.126217	-408.905395	95.380772	1164.716573	-222.335025	256.809123	1147.843910	-385.588731	246.400422	1101.739559	-58.717991	273.562102	1091.620921	-352.968741	277.154301	1065.003451	-103.662942	130.507860	1195.753757	-184.906890	128.842817	1203.965117	-244.216404	195.604416	1021.401695	-42.521428	230.077912	1095.021714	-423.400350	233.880260	903.707153	-11.653259	274.183609	822.174496	-6.936523	270.527029	735.503973	-17.162438	311.098350	831.405952	-14.621108	286.706419	630.600992	-26.643684	291.447037	605.151385	-133.747907	260.749672	509.066072	-5.106460	264.578444	423.661374	-24.409964	225.912922	345.972288	-34.150530	289.746780	423.426524	-56.620664	203.188680	269.656676	-44.693648	139.112611	266.423544	-93.754430	385.722820	137.833074	-91.024182	288.062881	159.824332	-21.652919	301.077925	1009.220397	-449.136261	382.202554	977.700137	-446.429877	402.558410	1003.839092	-429.866932	438.476814	908.181825	-452.635412	477.712307	810.943767	-428.404191	485.053136	796.545248	-312.810639	169.076434	614.946760	-375.228151	103.177618	649.921469	-323.643361	189.282775	470.672733	-391.945450	397.749091	740.763184	-437.734498	339.175604	683.923758	-405.819468	254.636070	657.656844	-396.276774	357.958397	667.519272	-375.605736	246.977040	406.660548	-331.695488	-160.364579	853.871979	-203.458407	-54.747663	84.026539	-404.660292	-51.572876	79.780995	-7.444820	
503	2.5150	646.962958	1301.503124	-69.707162	634.972719	1299.613375	-379.549686	646.492667	1370.317630	-226.850917	624.259176	1210.342030	-221.071040	545.746513	1064.412340	45.157341	715.875454	925.044833	-41.880454	539.252820	1063.913643	-490.605249	711.125594	923.335955	-409.279263	96.342550	1164.119764	-220.137601	256.702010	1148.875880	-385.134757	248.941387	1100.669602	-58.322821	274.052106	1093.190423	-352.245415	279.477333	1064.263340	-103.669107	131.710358	1195.298080	-183.279202	129.520358	1203.914574	-242.384384	196.865062	1019.943272	-42.777242	230.028441	1097.004995	-422.557267	233.848814	902.218663	-12.301378	272.974482	820.055032	-8.154690	267.836495	733.812253	-17.572179	308.591418	828.550273	-16.909427	282.797356	628.493398	-26.978829	286.614986	602.884442	-134.209617	255.840744	507.195019	-5.437143	259.756217	421.658491	-24.209774	220.845556	344.148289	-33.753778	284.890816	421.413399	-56.539374	198.005624	267.877698	-44.155582	133.898365	266.442007	-92.942654	378.076932	132.467596	-91.154077	280.950346	156.352117	-21.488946	301.712443	1012.402671	-449.558907	383.146075	981.754531	-447.038591	403.216676	1007.945448	-429.981293	440.135180	912.982736	-454.144098	481.224532	816.081291	-429.307927	489.014868	801.616473	-313.517677	174.266941	617.990625	-375.345648	107.734133	651.833962	-323.784614	197.197065	474.519897	-392.077414	401.845352	745.918877	-438.369077	343.543889	688.744885	-406.575195	259.178438	662.112739	-396.958979	362.516173	672.044297	-376.641141	256.114855	411.542221	-331.653655	-160.452016	853.880848	-203.368315	-54.761323	84.006769	-404.661966	-51.585903	79.759893	-7.416583	
504	2.5200	647.724329	1302.423992	-71.155665	635.937060	1300.119717	-381.088559	647.468171	1370.866558	-228.464107	624.926935	1210.924355	-222.308261	547.392159	1065.604415	44.767943	716.337992	924.990868	-42.309619	539.394748	1064.268411	-491.806454	711.287994	923.261327	-409.545296	97.026855	1164.598983	-218.021681	256.473145	1150.291289	-384.711092	251.205601	1100.237615	-58.049326	274.293053	1095.196521	-351.606088	281.539632	1064.167807	-103.785292	132.930753	1195.510258	-181.690171	130.134097	1204.517543	-240.670748	198.213166	1019.097974	-42.935851	229.734181	1099.505469	-421.790454	233.687067	901.325912	-13.155952	271.660519	819.099571	-8.171278	264.556648	732.956575	-18.376649	307.402658	826.694151	-17.812477	278.679781	627.167166	-27.530673	281.461859	601.215493	-134.770021	250.852052	505.789832	-5.702562	254.707337	420.382367	-24.147116	215.551933	343.032010	-33.269433	279.262677	419.899556	-56.373319	193.001772	266.778836	-43.626815	129.091761	266.863209	-92.255296	370.331980	127.409976	-91.223375	273.758689	153.197889	-21.334403	301.820599	1015.805777	-449.680663	383.623569	986.026775	-447.412150	403.460514	1012.320251	-430.034046	441.234156	918.036640	-455.151273	484.348144	821.198425	-429.794749	492.457925	806.746542	-313.878990	179.359955	620.508956	-375.374857	112.340798	653.316981	-323.933478	205.213885	477.817249	-392.143047	405.713606	750.849169	-438.844778	347.815491	693.183325	-407.119521	263.666125	665.994076	-397.475626	367.038841	676.232064	-377.411719	265.082494	416.044960	-331.837189	-160.437125	853.891187	-203.266186	-54.768335	84.013406	-404.664317	-51.559563	79.742185	-7.425196	
505	2.5250	648.722629	1303.418146	-72.595785	637.015773	1300.350176	-382.737891	648.671423	1371.368020	-230.078716	625.721263	1211.479885	-223.432791	549.276634	1066.881604	44.281209	717.094013	924.768910	-42.530673	539.387607	1064.350025	-493.088213	711.428400	923.516717	-410.049925	97.276016	1165.518676	-215.074997	256.129272	1152.214810	-384.393567	253.312722	1100.507484	-58.019616	274.206544	1097.985424	-351.042125	283.224308	1064.584114	-104.135260	134.090897	1196.418390	-180.156976	130.825515	1205.758509	-238.913475	199.350700	1019.007728	-42.842827	229.087448	1102.368444	-421.201465	233.201317	901.313279	-13.425559	270.019934	818.295908	-9.673394	261.941570	731.986024	-18.770029	306.277426	825.538071	-18.697727	274.025925	626.518168	-28.404151	276.020188	600.304587	-135.483974	246.179802	505.119912	-6.004881	249.102521	419.962578	-24.441650	210.490591	342.394365	-32.964896	274.145442	418.800820	-56.535506	188.136255	266.104927	-43.050768	124.644908	267.927850	-91.586340	362.378475	122.446248	-91.217418	266.487259	150.408590	-21.111179	301.473783	1019.321946	-449.512882	383.649564	990.370933	-447.608622	403.279891	1016.813567	-430.005222	442.063685	923.216972	-455.814928	487.080668	826.216571	-429.892451	495.277201	811.624711	-313.826331	184.327020	622.384297	-375.368501	117.046115	654.261195	-323.932711	213.084419	480.805552	-392.511097	409.357978	755.379688	-438.954637	351.968224	697.116541	-407.406553	268.065051	669.132050	-397.786698	371.361292	680.184697	-377.934981	274.135794	420.097148	-331.945268	-160.523306	853.883615	-203.278354	-54.772246	84.011001	-404.649550	-51.580147	79.812979	-7.430530	
506	2.5300	649.852098	1304.429579	-73.999940	638.359931	1300.503780	-384.411459	650.127128	1371.843597	-231.757556	626.640045	1212.033665	-224.558752	551.167348	1068.220801	43.716735	718.570716	924.340258	-42.647817	539.319736	1064.434493	-494.489447	711.610136	923.752295	-410.270839	100.623043	1166.439542	-217.136491	255.649900	1154.691692	-384.130179	255.231095	1101.551249	-58.235914	273.917511	1101.042501	-350.356536	284.121810	1065.179416	-104.638553	135.231489	1198.024463	-178.674601	131.386837	1207.664533	-237.287943	199.836331	1019.868873	-41.705611	228.108536	1105.611711	-420.712824	233.055500	902.136200	-13.202025	268.216934	818.306391	-10.764048	258.742661	732.150565	-19.755443	304.897836	825.036926	-19.994520	269.052727	626.477336	-29.428906	270.304274	600.059697	-136.460933	240.356877	505.502665	-6.263025	244.468932	419.856711	-24.298371	205.524999	342.369292	-32.648167	268.926006	419.147281	-56.413675	183.466638	266.163818	-42.405336	120.499811	269.645287	-91.103523	354.099107	117.611039	-91.156681	259.182290	148.052864	-20.867826	300.657762	1022.938570	-449.086793	383.220084	994.759298	-447.917631	402.722115	1021.520424	-430.036623	442.171985	928.001854	-455.689634	489.393020	831.099260	-429.613345	497.512462	816.502834	-313.365100	189.196440	623.570462	-375.302280	121.053217	654.390960	-323.761072	221.177108	483.478428	-392.844419	412.689204	759.564232	-438.823906	356.069092	700.519111	-407.448043	272.518712	671.545470	-397.889111	375.639999	683.739653	-378.082024	283.473240	424.274442	-332.185956	-160.430164	853.883828	-203.177436	-54.782938	83.914352	-404.593953	-51.600650	79.816244	-7.427541	
